HIERARCHY
ROOT Hips
{
	OFFSET -3.958830 18.904000 13.208200
	CHANNELS 6 Xposition Yposition Zposition Zrotation Yrotation Xrotation 
	JOINT LHipJoint
	{
		OFFSET 0.000000 0.000000 0.000000
		CHANNELS 3 Zrotation Yrotation Xrotation
		JOINT LeftUpLeg
		{
			OFFSET 1.800000 -1.400000 0.085000
			CHANNELS 3 Zrotation Yrotation Xrotation
			JOINT LeftLeg
			{
				OFFSET 2.215000 -6.000000 0.000000
				CHANNELS 3 Zrotation Yrotation Xrotation
				JOINT LeftFoot
				{
					OFFSET 2.500000 -6.900000 0.000000
					CHANNELS 3 Zrotation Yrotation Xrotation
					JOINT LeftToeBase
					{
						OFFSET 0.200000 -0.500000 1.950000
						CHANNELS 3 Zrotation Yrotation Xrotation
						End Site
						{
							OFFSET 0.000000 0.000000 0.000000
						}
					}
				}
			}
		}
	}
	JOINT RHipJoint
	{
		OFFSET 0.000000 0.000000 0.000000
		CHANNELS 3 Zrotation Yrotation Xrotation
		JOINT RightUpLeg
		{
			OFFSET -1.800000 -1.400000 0.085000
			CHANNELS 3 Zrotation Yrotation Xrotation
			JOINT RightLeg
			{
				OFFSET -2.215000 -6.000000 0.000000
				CHANNELS 3 Zrotation Yrotation Xrotation
				JOINT RightFoot
				{
					OFFSET -2.500000 -6.900000 0.000000
					CHANNELS 3 Zrotation Yrotation Xrotation
					JOINT RightToeBase
					{
						OFFSET -0.200000 -0.500000 1.950000
						CHANNELS 3 Zrotation Yrotation Xrotation
						End Site
						{
							OFFSET 0.000000 0.000000 0.000000
						}
					}
				}
			}
		}
	}
	JOINT LowerBack
	{
		OFFSET 0.000000 0.000000 0.000000
		CHANNELS 3 Zrotation Yrotation Xrotation
		JOINT Spine
		{
			OFFSET -0.087000 1.940000 -0.288900
			CHANNELS 3 Zrotation Yrotation Xrotation
			JOINT Spine1
			{
				OFFSET 0.000000 1.950000 0.060000
				CHANNELS 3 Zrotation Yrotation Xrotation
				JOINT Neck
				{
					OFFSET 0.000000 0.000000 0.000000
					CHANNELS 3 Zrotation Yrotation Xrotation
					JOINT Neck1
					{
						OFFSET 0.000000 1.600000 0.340000
						CHANNELS 3 Zrotation Yrotation Xrotation
						JOINT Head
						{
							OFFSET 0.000000 1.667000 -0.240000
							CHANNELS 3 Zrotation Yrotation Xrotation
							End Site
							{
								OFFSET 0.000000 0.000000 0.000000
							}
						}
					}
				}
				JOINT LeftShoulder
				{
					OFFSET 0.000000 0.000000 0.000000
					CHANNELS 3 Zrotation Yrotation Xrotation
					JOINT LeftArm
					{
						OFFSET 2.700000 1.550000 -0.730000
						CHANNELS 3 Zrotation Yrotation Xrotation
						JOINT LeftForeArm
						{
							OFFSET 5.450000 0.000000 0.000000
							CHANNELS 3 Zrotation Yrotation Xrotation
							JOINT LeftHand
							{
								OFFSET 3.450000 0.000000 0.000000
								CHANNELS 3 Zrotation Yrotation Xrotation
								JOINT LeftHandIndex1
								{
									OFFSET 0.750000 0.000000 0.000000
									CHANNELS 3 Zrotation Yrotation Xrotation
									End Site
									{
										OFFSET 0.000000 0.000000 0.000000
									}
								}
							}
						}
					}
				}
				JOINT RightShoulder
				{
					OFFSET 0.000000 0.000000 0.000000
					CHANNELS 3 Zrotation Yrotation Xrotation
					JOINT RightArm
					{
						OFFSET -2.700000 1.550000 -0.730000
						CHANNELS 3 Zrotation Yrotation Xrotation
						JOINT RightForeArm
						{
							OFFSET -5.450000 0.000000 0.000000
							CHANNELS 3 Zrotation Yrotation Xrotation
							JOINT RightHand
							{
								OFFSET -3.450000 0.000000 0.000000
								CHANNELS 3 Zrotation Yrotation Xrotation
								JOINT RightHandIndex1
								{
									OFFSET -0.750000 0.000000 0.000000
									CHANNELS 3 Zrotation Yrotation Xrotation
									End Site
									{
										OFFSET 0.000000 0.000000 0.000000
									}
								}
							}
						}
					}
				}
			}
		}
	}
}
MOTION
Frames: 4
Frame Time: 0.016667
-0.230640 16.983330 -0.818410 -1.889796 2.722905 6.433481 -15.282506 13.660861 2.724012 7.440261 -1.592414 -15.541638 -6.029216 5.550046 11.702575 -0.315180 4.098024 3.328109 -0.324860 -0.377040 -0.492950 18.164352 -10.656590 2.366218 -6.925789 1.715626 -19.358156 5.560527 -4.734364 16.795286 0.353369 -3.295407 3.323003 0.026100 0.834910 0.045670 -3.293218 -2.776327 -6.437897 3.105066 -1.209946 3.535381 -1.390909 -0.834501 2.594098 -2.415702 -8.704335 -4.381835 -18.230370 11.346327 27.120527 0.421060 5.232370 7.562330 -22.637477 3.105445 -0.996304 -55.404129 -10.034558 1.417749 -24.528067 -18.241369 2.619956 -4.359256 3.062882 -0.185310 0.544350 -0.524470 0.159350 27.115605 2.807290 0.810877 54.871024 5.068592 -3.476423 7.960885 9.567877 -0.715219 2.472125 -1.283181 -0.384940 0.334250 0.350560 0.102700 
-0.243140 16.985930 -0.833080 -1.744549 2.672162 6.793653 -15.291739 13.657480 2.754345 7.336776 -1.702637 -15.950289 -6.174141 5.530348 11.558906 -0.327958 4.085537 3.338161 -0.327690 -0.372420 -0.493500 18.160557 -10.624430 2.357324 -6.950420 1.885089 -20.393003 5.249829 -4.770994 17.940499 0.366840 -3.316163 3.311785 0.037480 0.849260 0.040360 -3.272564 -2.839292 -6.436336 2.958831 -1.463391 3.675319 -1.933248 -1.046486 2.398765 -2.304580 -8.856045 -4.211321 -18.374082 11.678762 26.313405 0.092940 5.695230 7.489540 -23.050715 3.392692 -1.310755 -55.009817 -10.193706 1.441415 -23.913503 -17.861722 2.475273 -4.379806 3.050177 -0.199170 0.561280 -0.536650 0.160620 27.272535 2.471161 0.698875 54.988836 4.850598 -3.690771 8.223929 10.193805 -0.751644 2.460416 -1.289409 -0.394860 0.344580 0.349750 0.102310 
-0.275910 16.985100 -0.849880 -1.738949 2.200245 7.349169 -15.297159 13.647040 2.788559 7.407800 -1.839976 -16.541374 -6.378221 5.505521 11.425084 -0.350237 4.061426 3.333440 -0.277590 -0.306170 -0.474340 18.166190 -10.564439 2.361507 -6.684866 2.142251 -21.750549 4.589899 -4.665798 19.107442 0.358950 -3.283186 3.306043 0.080810 0.837820 0.046280 -3.264049 -2.930431 -6.434178 2.937525 -1.734973 3.928924 -2.569735 -1.241699 2.337705 -2.302691 -9.400395 -4.149886 -19.263757 12.155096 24.732860 0.300230 5.650520 6.105740 -22.725867 4.085527 -1.671337 -56.024252 -10.636242 1.541350 -22.548058 -17.853551 2.227556 -4.375879 3.047938 -0.197720 0.551900 -0.521580 0.174690 26.863527 1.996260 0.720379 55.089743 4.283843 -4.329907 9.895825 12.423552 -0.690732 2.423413 -1.313363 -0.381070 0.354590 0.331850 0.106840 
-0.305870 16.986540 -0.860300 -1.789787 1.851593 8.085427 -15.296719 13.624316 2.806155 7.380747 -1.989756 -17.075704 -6.099426 5.252313 10.733342 -0.412098 3.967640 3.358014 -0.215350 -0.227990 -0.446170 18.183679 -10.490845 2.371906 -6.586217 2.389509 -23.106021 4.116501 -4.579173 20.046046 0.349213 -3.264948 3.289098 0.144790 0.833270 0.048910 -3.284956 -3.017844 -6.410706 3.213219 -2.419330 4.139647 -3.489365 -1.844101 1.983446 -2.376965 -10.263113 -3.823574 -20.726748 12.930637 22.426348 0.357540 5.660830 4.266190 -23.248609 5.231648 -2.222560 -57.003411 -10.428504 1.327044 -21.196576 -18.043133 1.942316 -4.379619 3.037311 -0.193800 0.546350 -0.512780 0.189560 27.403613 1.193864 0.411254 53.972818 3.950623 -4.605303 11.903427 14.049874 -0.547053 2.381745 -1.339331 -0.379480 0.380710 0.316950 0.106340 
